HIERARCHY
ROOT Hips
{
	OFFSET 0.000000 0.000000 0.000000
	CHANNELS 6 Xposition Yposition Zposition Zrotation Yrotation Xrotation 
	JOINT LowerBack
	{
		OFFSET 0.000000 0.000000 0.000000
		CHANNELS 3 Zrotation Yrotation Xrotation
		JOINT Spine
		{
			OFFSET 0.028270 2.035590 -0.193380
			CHANNELS 3 Zrotation Yrotation Xrotation
			JOINT Spine1
			{
				OFFSET 0.056720 2.048850 -0.042750
				CHANNELS 3 Zrotation Yrotation Xrotation
				JOINT Neck
				{
					OFFSET 0.000000 0.000000 0.000000
					CHANNELS 3 Zrotation Yrotation Xrotation
					JOINT Neck1
					{
						OFFSET -0.054170 1.746240 0.172020
						CHANNELS 3 Zrotation Yrotation Xrotation
						JOINT Head
						{
							OFFSET 0.104070 1.761360 -0.123970
							CHANNELS 3 Zrotation Yrotation Xrotation
							End Site
							{
								OFFSET 0.000000 0.000000 0.000000
							}
						}
					}
				}
				JOINT LeftShoulder
				{
					OFFSET 0.000000 0.000000 0.000000
					CHANNELS 3 Zrotation Yrotation Xrotation
					JOINT LeftArm
					{
						OFFSET 3.362410 1.200890 -0.311210
						CHANNELS 3 Zrotation Yrotation Xrotation
						JOINT LeftForeArm
						{
							OFFSET 4.983000 -0.000000 -0.000000
							CHANNELS 3 Zrotation Yrotation Xrotation
							JOINT LeftHand
							{
								OFFSET 3.483560 -0.000000 -0.000000
								CHANNELS 3 Zrotation Yrotation Xrotation
								JOINT LeftFingerBase
								{
									OFFSET 0.000000 0.000000 0.000000
									CHANNELS 3 Zrotation Yrotation Xrotation
									JOINT LeftHandIndex1
									{
										OFFSET 0.715260 -0.000000 -0.000000
										CHANNELS 3 Zrotation Yrotation Xrotation
										End Site
										{
											OFFSET 0.000000 0.000000 0.000000
										}
									}
								}
								JOINT LThumb
								{
									OFFSET 0.000000 0.000000 0.000000
									CHANNELS 3 Zrotation Yrotation Xrotation
									End Site
									{
										OFFSET 0.000000 0.000000 0.000000
									}
								}
							}
						}
					}
				}
				JOINT RightShoulder
				{
					OFFSET 0.000000 0.000000 0.000000
					CHANNELS 3 Zrotation Yrotation Xrotation
					JOINT RightArm
					{
						OFFSET -3.136600 1.374050 -0.404650
						CHANNELS 3 Zrotation Yrotation Xrotation
						JOINT RightForeArm
						{
							OFFSET -5.241900 -0.000000 -0.000000
							CHANNELS 3 Zrotation Yrotation Xrotation
							JOINT RightHand
							{
								OFFSET -3.444170 -0.000000 -0.000000
								CHANNELS 3 Zrotation Yrotation Xrotation
								JOINT RightFingerBase
								{
									OFFSET 0.000000 0.000000 0.000000
									CHANNELS 3 Zrotation Yrotation Xrotation
									JOINT RightHandIndex1
									{
										OFFSET -0.622530 -0.000000 -0.000000
										CHANNELS 3 Zrotation Yrotation Xrotation
										End Site
										{
											OFFSET 0.000000 0.000000 0.000000
										}
									}
								}
								JOINT RThumb
								{
									OFFSET 0.000000 0.000000 0.000000
									CHANNELS 3 Zrotation Yrotation Xrotation
									End Site
									{
										OFFSET 0.000000 0.000000 0.000000
									}
								}
							}
						}
					}
				}
			}
		}
	}
}
}
MOTION
Frames: 6
Frame Time: 0.008333
-10.952655 16.918104 -1.958031 -18.740769 82.480202 -4.487959 0.373026 0.111049 -1.958277 -0.972283 -0.060278 -3.497761 -7.385659 -0.178154 0.286189 10.747064 -2.417261 -5.890085 -4.276569 -0.343103 0.425234 0.000000 0.000000 0.000000 -5.613453 9.668256 2.155958 -68.365598 8.606802 8.098697 -3.519798 -19.840114 -0.005928 -1.109349 4.582713 -0.041935 -0.067389 -0.034838 -0.000000 0.000000 0.000000 0.000000 0.000000 0.000000 0.000000 19.036084 1.988649 0.918394 63.505944 16.052608 6.475714 2.787300 36.078325 0.013402 0.700779 8.435743 0.048915 0.064428 -0.176905 -0.000000 0.000000 0.000000 0.000000 0.000000 0.000000 0.000000 
-10.716773 16.896115 -1.949507 -14.794903 82.483283 -0.673535 -0.336511 -0.030927 -2.069120 -1.106683 -0.159209 -3.511812 -7.440841 -0.281927 0.294680 10.992558 -2.557476 -5.892930 -4.290885 -0.344410 0.424516 0.000000 0.000000 0.000000 -5.334764 9.566410 2.130782 -68.269695 8.779686 8.632772 -3.539428 -20.465697 -0.006289 -1.376667 4.635648 -0.053332 -0.068625 -0.036688 -0.000000 0.000000 0.000000 0.000000 0.000000 0.000000 0.000000 19.395854 1.774395 0.890431 63.918193 15.664548 6.422321 2.803223 35.652278 0.013593 0.884725 8.368317 0.062310 0.062879 -0.172918 -0.000000 0.000000 0.000000 0.000000 0.000000 0.000000 0.000000 
-10.485149 16.876093 -1.939469 -10.530823 82.503050 3.513563 -1.080303 -0.196241 -2.183470 -1.244702 -0.278521 -3.525113 -7.490469 -0.406687 0.302149 11.218001 -2.689486 -5.913276 -4.304586 -0.345452 0.418174 0.000000 0.000000 0.000000 -5.081867 9.471589 2.114540 -68.099885 8.836312 9.214332 -3.556822 -21.099782 -0.006538 -1.570506 4.642264 -0.061223 -0.069874 -0.037861 -0.000000 0.000000 0.000000 0.000000 0.000000 0.000000 0.000000 19.731122 1.560680 0.860746 64.375155 15.257126 6.264615 2.810512 35.179720 0.013574 0.963494 8.333442 0.068005 0.061840 -0.169489 -0.000000 0.000000 0.000000 0.000000 0.000000 0.000000 0.000000 
-10.258323 16.859474 -1.928894 -6.257039 82.537593 7.748673 -1.806106 -0.380449 -2.278163 -1.377288 -0.416372 -3.533842 -7.534358 -0.549950 0.305854 11.412656 -2.808254 -5.947586 -4.317893 -0.346246 0.407050 0.000000 0.000000 0.000000 -4.867051 9.372688 2.108737 -67.868347 8.764603 9.787618 -3.570207 -21.709470 -0.006621 -1.659095 4.599444 -0.064210 -0.071064 -0.038176 -0.000000 0.000000 0.000000 0.000000 0.000000 0.000000 0.000000 20.028808 1.352360 0.831016 64.868523 14.826533 5.997970 2.808518 34.663378 0.013321 0.919488 8.330141 0.064699 0.061415 -0.166592 -0.000000 0.000000 0.000000 0.000000 0.000000 0.000000 0.000000 
-10.036616 16.847572 -1.918156 -2.035117 82.580048 11.948781 -2.501018 -0.577920 -2.330922 -1.502949 -0.567340 -3.533243 -7.572583 -0.705654 0.308447 11.575954 -2.910532 -5.995941 -4.331242 -0.346768 0.390748 0.000000 0.000000 0.000000 -4.680067 9.286961 2.113666 -67.591808 8.523445 10.327062 -3.580357 -22.240092 -0.006512 -1.615910 4.504576 -0.061091 -0.072269 -0.037447 -0.000000 0.000000 0.000000 0.000000 0.000000 0.000000 0.000000 20.290525 1.154388 0.800803 65.389527 14.371958 5.624165 2.796206 34.110513 0.012823 0.749156 8.350627 0.052190 0.061549 -0.164120 -0.000000 0.000000 0.000000 0.000000 0.000000 0.000000 0.000000 
-9.819840 16.841428 -1.908799 1.745165 82.617875 15.708683 -3.105732 -0.774331 -2.329381 -1.611772 -0.721203 -3.522710 -7.606103 -0.863059 0.305347 11.698307 -2.993887 -6.050225 -4.344841 -0.347108 0.371768 0.000000 0.000000 0.000000 -4.535674 9.191000 2.127521 -67.288076 8.141192 10.773267 -3.585447 -22.689132 -0.006213 -1.430347 4.366798 -0.052067 -0.073386 -0.035734 -0.000000 0.000000 0.000000 0.000000 0.000000 0.000000 0.000000 20.504009 0.971655 0.774314 65.922321 13.889085 5.157098 2.775957 33.523627 0.012108 0.459539 8.387134 0.030678 0.062281 -0.161936 -0.000000 0.000000 0.000000 0.000000 0.000000 0.000000 0.000000 
